<?xml version="1.0" standalone="no"?><!DOCTYPE svg PUBLIC "-//W3C//DTD SVG 1.1//EN" "http://www.w3.org/Graphics/SVG/1.1/DTD/svg11.dtd"><svg t="1664352807721" class="icon" viewBox="0 0 1024 1024" version="1.1" xmlns="http://www.w3.org/2000/svg" p-id="3173" xmlns:xlink="http://www.w3.org/1999/xlink" width="60" height="60"><path d="M512 0C229.2 0 0 229.2 0 512s229.2 512 512 512 512-229.2 512-512S794.8 0 512 0z m349.7 596c-15.6 191.5-153.1 315.2-350.5 315.2-190.8 0-331.1-120.4-349.2-299.7l-0.1-0.9c-0.9-9.1-1.1-18.9-0.8-30.9l0.7-22.2c0.5-17 2.2-32 5.2-45.7l0.6-2.6c6.9-30.9 19.9-62.2 38.7-93.2l5.2-8.5c10.7-17.6 21.3-32.1 32.2-44.4 15.9-17.7 33.4-33.5 52.2-47.5 0.7-9.4 2.7-19.5 6.3-30.6l0.9-2.3c4.4-9.8 35.2-59.6 192.7-52.6-1-12.3-4.7-30.3-16.5-45.1-5.9-7.4-7.2-17.4-3.4-26.1 3.8-8.7 12.1-14.4 21.5-15.1l89.3-5.9c13.6-1 26.1 8.1 29.5 21.5 6.9 27.8 13.5 63.3 10.4 88.8 43.7 11.3 151.5 45.6 186.4 115.1l1 1.9 0.5 2.4c1 4.8 3.9 22.4-0.7 39.7 36.4 56.9 53.3 122.1 47.9 188.7z" fill="#F6CCFF" p-id="3174"></path><path d="M214.5 591.8c-4.8-78.5 11.8-147.5 46.6-201-7.7 9.4-15.3 20.1-23 32.9l-5.2 8.6c-17.1 28.1-28.8 56.3-35 83.8l-0.5 2.3c-2.6 11.9-4 25.1-4.5 40.2l-0.7 22.2c-0.3 10.3-0.1 18.7 0.6 26.2l0.1 0.8c4.7 47.9 18.6 90.8 40.2 127.7-10.3-40.1-15.2-88.1-18.6-143.7z" fill="#E6AFEF" p-id="3175"></path><path d="M765.2 594.7C750.8 771.3 635 869 463.3 877.4c15.5 1.8 31.5 2.7 47.9 2.7 179.9 0 305.3-112.5 319.5-286.6 4.5-55.2-8.2-109.6-36.1-157.9-12.1 8.2-27.7 10.3-47.2 6.3 16.1 44.7 22.3 96.5 17.8 152.8z" fill="#470B7C" p-id="3176"></path><path d="M214.5 591.8c3.4 55.6 8.4 103.7 18.6 143.7 46 78.8 127.2 129.9 230.2 141.9 171.7-8.3 287.5-106 301.9-282.6 4.6-56.3-1.7-108.1-17.8-152.9-5.2-1.1-10.6-2.4-16.3-4.4 6.4 15.8 10.3 33.9 6.4 51.1-4 17.8-15.8 32.4-34.1 42.1-23.6 12.5-42.1 8.7-53.5 3.3-15.8-7.5-27.4-22.4-36-38.8-6.5 22.2-16.7 42.5-33.3 53.3-7.9 5.1-16.7 7.7-26.1 7.7-5.5 0-11.2-0.9-17-2.7-59.8-18.6-63.6-45.9-61.7-93.1-19.6 20.2-46.5 40.6-75.5 40.9-23.1 0.3-43.5-11.7-60.4-35.4l-0.6-0.9c-7.1-11.7-8.6-25-4.2-38.7 4.8-14.9 16-28.6 30-40.4-21.9-1.9-42.2-8.5-55.5-23.6-3.2-3.6-5.7-7.6-7.8-11.9-12.4 10.2-24.2 21.4-35.1 33.5-1.9 2.2-3.9 4.5-5.8 6.8-34.6 53.6-51.2 122.6-46.4 201.1z m370.1 20.1c11.8 0 21.4 9.6 21.4 21.4 0 11.8-9.6 21.4-21.4 21.4s-21.4-9.6-21.4-21.4c0-11.8 9.6-21.4 21.4-21.4z m-91.7 75.3c0-6.5 5.3-11.7 11.7-11.7h37.5c6.5 0 11.7 5.3 11.7 11.7v11.4c0 16.8-13.7 30.5-30.5 30.5s-30.5-13.7-30.5-30.5v-11.4z m-29.5-75.3c11.8 0 21.4 9.6 21.4 21.4 0 11.8-9.6 21.4-21.4 21.4s-21.4-9.6-21.4-21.4c0-11.8 9.6-21.4 21.4-21.4zM269 482.1c8.2 2.5 12.8 11.2 10.3 19.4-4.9 15.9-8.6 34.3-11.2 54.5-1 7.9-7.7 13.6-15.4 13.6-0.6 0-1.3 0-2-0.1-8.5-1.1-14.6-8.8-13.5-17.4 2.8-22 6.9-42.1 12.3-59.7 2.6-8.2 11.3-12.9 19.5-10.3z m46-56.1c4.2 7.3 1.7 16.6-5.5 21-0.6 0.4-6.8 4.9-14.4 17.5-2.9 4.8-8.1 7.5-13.3 7.5-2.7 0-5.5-0.7-8-2.2-7.3-4.4-9.7-14-5.3-21.3 12.1-20.1 23.2-27.1 25.3-28.3 7.5-4.2 17-1.7 21.2 5.8z" fill="#AB45F4" p-id="3177"></path><path d="M333 341.7c12.2 13.9 45.2 17.4 88.1 9.3 8.3-1.7 16.5 3.3 19 11.5s-1.6 16.9-9.6 20.2c-33.1 13.8-60.1 35.7-65.8 53.2-1.6 4.8-1.3 8.7 0.9 12.4 10.6 14.7 21.7 21.9 34 21.9h0.3c26.9-0.3 59-33.6 78.4-62.1 3.1-4.6 8.2-7.3 13.6-7.3 1.7 0 3.4 0.3 5.1 0.8 7 2.3 11.8 9 11.6 16.4-0.3 11.1-0.8 21.1-1.3 30.2-2.7 54.1-3.1 62.4 39.2 75.6 8.8 2.8 13.7 0.7 16.9-1.4 13.9-9 23.7-37 29.3-83.2 0.9-7.6 2.4-20.3 16-20.8l13.3-0.5 2.8 13.5c5.8 28.9 19.2 65.5 38.2 74.5 4.7 2.2 12.4 4.3 25.6-2.7 10.4-5.5 16.4-12.5 18.3-21.4 4.3-19.2-9.6-46.6-24-65.9-4.7-6.3-4.4-14.9 0.7-20.8 5.2-6 13.7-7.5 20.6-3.7 52.1 28.5 69.2 21.1 73.2 18.2 9-6.6 8.1-25.6 6.8-34-29.3-54.3-125.7-88.6-178.7-100.4l-7.1-1.6-4-7c-2.2-4.4-2.4-9.5-0.5-14.1 4.9-11.9 2.1-44.6-7.4-83.4l-76.9 5.1c19.4 30.7 17.8 65.4 17.2 72.6-0.8 9.1-8.6 15.9-17.6 15.2-127.2-8.2-171.7 21.6-177.9 33.5-6.7 21.8-6.2 37.2 1.7 46.2z" fill="#91CC6A" p-id="3178"></path><path d="M814.6 367.7l-0.5-2.4-1-1.9C778.2 294 670.5 259.7 626.7 248.3c3.1-25.5-3.5-61-10.4-88.8-3.3-13.4-15.9-22.5-29.5-21.5l-89.3 5.9c-9.5 0.6-17.7 6.4-21.5 15.1-3.8 8.7-2.5 18.7 3.4 26.1 11.8 14.8 15.5 32.8 16.5 45.1-157.6-7-188.3 42.8-192.7 52.6l-0.9 2.3c-3.6 11-5.6 21.2-6.3 30.6-18.8 14-36.4 29.8-52.2 47.5-11 12.2-21.5 26.7-32.2 44.4l-5.2 8.5c-18.8 31-31.9 62.3-38.7 93.2l-0.6 2.6c-2.9 13.8-4.6 28.7-5.2 45.7l-0.7 22.2c-0.4 12-0.1 21.8 0.8 30.9l0.1 0.9c18.1 179.3 158.4 299.7 349.2 299.7 197.3 0 334.9-123.7 350.5-315.2 5.4-66.5-11.5-131.8-47.8-188.6 4.5-17.4 1.6-35 0.6-39.8zM509.4 262.1c9 0.7 16.8-6.1 17.6-15.2 0.6-7.2 2.2-41.9-17.2-72.6l76.9-5.1c9.5 38.8 12.3 71.4 7.4 83.4-1.9 4.6-1.8 9.7 0.5 14.1l4 7 7.1 1.6c53 11.8 149.4 46 178.7 100.4 1.3 8.4 2.2 27.4-6.8 34-4 2.9-21.1 10.3-73.2-18.2-7-3.8-15.4-2.3-20.6 3.7-5.2 6-5.5 14.5-0.7 20.8 14.4 19.2 28.3 46.6 24 65.9-2 8.9-8 15.9-18.3 21.4-13.2 7-20.9 4.9-25.6 2.7-19-9-32.4-45.6-38.2-74.5l-2.8-13.5-13.3 0.5c-13.5 0.5-15 13.2-16 20.8-5.5 46.2-15.4 74.2-29.3 83.2-3.2 2.1-8.1 4.2-16.9 1.4-42.4-13.2-42-21.5-39.2-75.6 0.5-9.1 1-19.1 1.3-30.2 0.2-7.4-4.6-14.1-11.6-16.4-1.7-0.5-3.4-0.8-5.1-0.8-5.4 0-10.5 2.6-13.6 7.3-19.4 28.5-51.5 61.8-78.4 62.1h-0.3c-12.3 0-23.5-7.2-34-21.9-2.2-3.8-2.4-7.6-0.9-12.4 5.7-17.5 32.7-39.4 65.8-53.2 7.9-3.3 12-12 9.6-20.2-2.5-8.2-10.7-13.2-19-11.5-43 8.1-75.9 4.7-88.1-9.3-7.9-9-8.5-24.5-1.6-46.2 6.1-11.9 50.6-41.7 177.8-33.5zM192.8 607c-0.7-7.6-0.9-15.9-0.6-26.2l0.7-22.2c0.5-15.1 1.9-28.2 4.5-40.2l0.5-2.3c6.1-27.5 17.9-55.7 35-83.8l5.2-8.6c7.7-12.7 15.3-23.5 23-32.9 1.9-2.3 3.9-4.7 5.8-6.8 10.9-12.1 22.6-23.3 35.1-33.5 2.1 4.2 4.6 8.2 7.8 11.9 13.3 15.2 33.6 21.8 55.5 23.6-14 11.8-25.2 25.5-30 40.4-4.4 13.6-3 27 4.2 38.7l0.6 0.9c16.9 23.8 37.3 35.7 60.4 35.4 29-0.3 55.9-20.7 75.5-40.9-1.9 47.2 1.9 74.5 61.7 93.1 5.8 1.8 11.5 2.7 17 2.7 9.4 0 18.2-2.6 26.1-7.7 16.6-10.7 26.7-31.1 33.3-53.3 8.5 16.4 20.2 31.3 36 38.8 11.4 5.4 29.9 9.2 53.5-3.3 18.3-9.7 30.2-24.3 34.1-42.1 3.9-17.2 0-35.3-6.4-51.1 5.7 1.9 11.1 3.3 16.3 4.4 19.5 4 35.1 1.9 47.2-6.3 27.9 48.4 40.6 102.7 36.1 157.9-14.1 174.1-139.5 286.6-319.5 286.6-16.4 0-32.4-0.9-47.9-2.7-103-12-184.2-63.1-230.2-141.9-21.6-36.9-35.4-79.8-40.2-127.7l-0.3-0.9z" fill="" p-id="3179"></path><path d="M463.4 633.3m-21.4 0a21.4 21.4 0 1 0 42.8 0 21.4 21.4 0 1 0-42.8 0Z" fill="" p-id="3180"></path><path d="M584.6 633.3m-21.4 0a21.4 21.4 0 1 0 42.8 0 21.4 21.4 0 1 0-42.8 0Z" fill="" p-id="3181"></path><path d="M523.4 718.7c11.1 0 20.2-9 20.2-20.2v-11.4c0-0.7-0.6-1.4-1.4-1.4h-37.5c-0.7 0-1.4 0.6-1.4 1.4v11.4c0 11.1 9 20.2 20.1 20.2z" fill="#F74376" p-id="3182"></path><path d="M523.4 729c16.8 0 30.5-13.7 30.5-30.5v-11.4c0-6.5-5.3-11.7-11.7-11.7h-37.5c-6.5 0-11.7 5.3-11.7 11.7v11.4c-0.1 16.9 13.6 30.5 30.4 30.5z m-20.1-41.8c0-0.7 0.6-1.4 1.4-1.4h37.5c0.8 0 1.4 0.6 1.4 1.4v11.4c0 11.1-9 20.2-20.2 20.2-11.1 0-20.1-9-20.1-20.2v-11.4z" fill="#020202" p-id="3183"></path><path d="M237.4 552.1c-1.1 8.5 5 16.3 13.5 17.4 0.7 0.1 1.3 0.1 2 0.1 7.7 0 14.4-5.7 15.4-13.6 2.5-20.3 6.3-38.6 11.2-54.5 2.5-8.2-2.1-16.9-10.3-19.4-8.2-2.5-16.9 2.1-19.4 10.3-5.6 17.6-9.7 37.7-12.4 59.7zM293.8 420.2c-2.1 1.2-13.2 8.2-25.3 28.3-4.4 7.4-2.1 16.9 5.3 21.3 2.5 1.5 5.3 2.2 8 2.2 5.3 0 10.4-2.7 13.3-7.5 7.6-12.6 13.8-17.1 14.4-17.5 7.2-4.3 9.6-13.6 5.5-21-4.2-7.5-13.7-10-21.2-5.8z" fill="#FFFFFF" p-id="3184"></path></svg>