<?xml version="1.0" standalone="no"?><!DOCTYPE svg PUBLIC "-//W3C//DTD SVG 1.1//EN" "http://www.w3.org/Graphics/SVG/1.1/DTD/svg11.dtd"><svg t="1664361387718" class="icon" viewBox="0 0 1024 1024" version="1.1" xmlns="http://www.w3.org/2000/svg" p-id="2142" width="128" height="128" xmlns:xlink="http://www.w3.org/1999/xlink"><path d="M890.368 375.2448a4.33152 4.33152 0 0 1 0.2048-4.2496c14.6944-23.296 29.0816-58.624 24.1664-103.68-7.5264-57.1904-14.4384-90.7776-16.8448-101.7344a4.39296 4.39296 0 0 0-4.9664-3.3792l-86.5792 12.4928c-0.1024 0-0.1536 0-0.256 0.0512-2.6112 0.2048-46.1312 3.9424-78.2848 27.4432-1.3824 1.024-3.1744 1.1776-4.6592 0.3584a392.23296 392.23296 0 0 0-61.44-26.5216c-5.6832-1.8944-8.704-8.0384-6.5536-13.6192l0.6656-1.792c3.6864-9.5744-3.3792-19.8144-13.6192-19.8144H435.9168c-10.4448 0-17.5104 10.5984-13.4656 20.224 2.3552 5.6832-0.6656 12.0832-6.5536 13.9776a389.35552 389.35552 0 0 0-63.1808 26.7776c-1.4848 0.768-3.2256 0.6144-4.5568-0.3072-32-22.784-74.5984-26.4192-77.2096-26.624-0.1024 0-0.1536 0-0.256-0.0512L184.1152 162.304a4.43392 4.43392 0 0 0-4.9664 3.3792c-2.4064 10.9568-9.3184 44.544-16.8448 101.7344-4.7616 43.52 8.5504 77.9776 22.6816 101.3248 0.768 1.28 0.8704 2.8672 0.1536 4.1984a391.76704 391.76704 0 0 0-41.9328 170.9056c-1.3312 87.1424 26.2656 168.448 73.8816 234.752 0.512 0.7168 0.768 1.536 0.8192 2.3552l5.632 149.248a14.21312 14.21312 0 0 0 14.1824 13.6704h26.9824c5.376 0 10.3424-3.072 12.7488-7.8848l26.7776-52.48c1.1776-2.3552 26.4192 1.3824 28.6208 2.7648 57.0368 34.9696 123.5968 55.8592 194.7648 57.5488 79.1552 1.8944 153.088-19.6608 215.552-58.112 2.2016-1.3824 5.12-0.5632 6.2976 1.792l24.064 48.5376c2.4064 4.864 7.3216 7.8848 12.7488 7.8848h52.3264a14.1824 14.1824 0 0 0 14.1824-13.6704l5.7344-151.2448c0.0512-0.8192 0.3072-1.6384 0.768-2.3552 45.2096-64.1536 71.8848-142.336 71.8848-226.7648 0-62.7712-14.7456-122.0096-40.8064-174.6432z m-362.8544 375.1424c-82.688 0-166.0928-57.9072-166.0928-140.5952s74.1888-172.8512 156.8768-172.8512 160.8192 78.592 160.8192 161.28-68.9152 152.1664-151.6032 152.1664z" fill="#FFA750" p-id="2143"></path><path d="M834.1504 959.1808H779.264c-11.5712 0-21.9648-6.4512-27.0848-16.8448l-20.0704-40.448c-67.9936 39.2704-145.3056 58.9824-224.2048 57.1392-70.7072-1.6896-140.1856-21.1968-201.6768-56.576l-19.7632 39.8848c-5.12 10.3936-15.5136 16.7936-27.0848 16.7936H204.4928c-16.3328 0-29.5936-12.8-30.208-29.1328l-5.7856-153.1392c-52.6336-74.496-79.7696-161.7408-78.3872-252.5184 0.9728-63.232 15.4112-123.904 42.9568-180.48-14.0288-24.832-28.1088-62.8736-22.8864-110.6432 7.936-60.16 15.1552-95.744 17.92-108.2368a20.0704 20.0704 0 0 1 22.3744-15.4624l90.4192 13.056c6.6048 0.5632 48.0256 4.864 82.6368 26.9312 18.944-9.6768 38.7072-17.9712 58.8288-24.7296-2.048-8.2432-0.5632-17.0496 4.2496-24.2688a30.63808 30.63808 0 0 1 25.5488-13.6704h216.1664c10.0864 0 19.5584 4.9664 25.2928 13.312a30.60224 30.60224 0 0 1 4.1984 25.8048c19.3536 6.656 38.4 14.848 56.7808 24.3712 34.8672-22.784 77.1584-27.1872 83.8656-27.7504l90.4192-13.056c10.3424-1.4848 20.1728 5.3248 22.3744 15.4624 2.7648 12.4416 9.984 47.872 17.92 107.9296 5.4272 49.408-9.5232 88.32-24.3712 113.6128 27.6992 57.856 41.728 119.8592 41.728 184.3712 0 87.7056-26.368 171.9296-76.288 243.8144l-5.888 155.2896c-0.6144 16.384-13.9264 29.184-30.208 29.184z m-97.536-92.416c1.8432 0 3.6864 0.256 5.5296 0.768 5.376 1.536 9.8816 5.3248 12.3904 10.3424l25.1904 50.8416 53.9648-0.256 5.9904-158.0032c0.1536-3.84 1.3824-7.5264 3.584-10.7008 47.4624-67.2768 72.5504-146.3808 72.5504-228.8128 0-61.7472-13.824-120.9856-41.1136-176.0768-3.1232-6.2464-2.7648-13.5168 0.9728-19.456 13.1584-20.8896 27.8528-54.9888 23.04-98.7648-6.1952-46.9504-11.9296-78.3872-15.36-95.232l-80.7424 11.6736c-0.256 0.0512-0.768 0.1024-1.024 0.1024-2.048 0.1536-44.1344 3.7376-74.3936 25.856-6.1952 4.5056-14.5408 5.12-21.248 1.4848a395.64288 395.64288 0 0 0-61.952-26.7776 26.7008 26.7008 0 0 1-15.616-13.824c-3.072-6.5024-3.328-13.824-0.768-20.5824l0.7168-1.8944-216.1152 0.1024c2.8672 6.656 2.7648 14.336-0.3072 20.9408a26.51136 26.51136 0 0 1-15.9232 14.1312 399.95392 399.95392 0 0 0-63.744 26.9824 19.8656 19.8656 0 0 1-20.8896-1.3824c-30.208-21.504-71.424-24.9856-73.1648-25.088-0.3584-0.0512-1.024-0.1024-1.3824-0.1536l-80.6912-11.6224c-3.4304 16.8448-9.1648 48.384-15.36 95.5392-3.7376 33.8944 3.5328 66.3552 21.6576 96.1536 3.584 5.9392 3.8912 13.1072 0.768 19.3024-27.136 53.8624-41.3696 111.872-42.2912 172.3904-1.28 85.1968 24.4736 167.1168 74.496 236.8 2.304 3.1744 3.584 6.912 3.7376 10.8544l5.888 155.9552h54.4256l24.5248-49.9712c2.4576-5.0176 6.9632-8.7552 12.3392-10.3424 5.376-1.536 11.2128-0.768 16.0256 2.2016 59.2896 36.3008 127.1808 56.3712 196.4032 58.0096 76.9024 1.792 152.1664-18.432 217.4464-58.624 3.1232-1.8432 6.7584-2.8672 10.4448-2.8672z m-440.4736 29.7472c0.0512 0 0.0512 0 0 0 0.0512 0 0.0512 0 0 0z m-125.7472-116.9408z m731.8016-438.3744s0 0.0512 0 0c0 0.0512 0 0 0 0z m-181.76-187.6992z" fill="#333333" p-id="2144"></path><path d="M536.1152 611.6352m-139.0592 0a139.0592 139.0592 0 1 0 278.1184 0 139.0592 139.0592 0 1 0-278.1184 0Z" fill="#FF917B" p-id="2145"></path><path d="M518.2976 766.0544c-94.976 0-172.2368-77.2608-172.2368-172.2368s77.2608-172.2368 172.2368-172.2368 172.2368 77.2608 172.2368 172.2368-77.2608 172.2368-172.2368 172.2368z m0-313.7536c-78.0288 0-141.5168 63.488-141.5168 141.5168s63.488 141.5168 141.5168 141.5168 141.5168-63.488 141.5168-141.5168-63.488-141.5168-141.5168-141.5168z" fill="#333333" p-id="2146"></path><path d="M451.6352 630.4256c-23.0912 0-41.8304-18.7904-41.8304-41.8304 0-23.0912 18.7904-41.8304 41.8304-41.8304s41.8304 18.7904 41.8304 41.8304-18.7904 41.8304-41.8304 41.8304z m0-52.9408c-6.144 0-11.1104 4.9664-11.1104 11.1104s4.9664 11.1104 11.1104 11.1104 11.1104-4.9664 11.1104-11.1104-5.0176-11.1104-11.1104-11.1104zM589.5168 630.4256c-23.04 0-41.8304-18.7904-41.8304-41.8304 0-23.0912 18.7904-41.8304 41.8304-41.8304s41.8304 18.7904 41.8304 41.8304-18.7392 41.8304-41.8304 41.8304z m0-52.9408c-6.144 0-11.1104 4.9664-11.1104 11.1104s4.9664 11.1104 11.1104 11.1104 11.1104-4.9664 11.1104-11.1104-4.9664-11.1104-11.1104-11.1104zM422.8608 396.0832c-8.4992 0-15.36-6.8608-15.36-15.36 0-25.2416-20.5312-45.7728-45.7728-45.7728s-45.7728 20.5312-45.7728 45.7728c0 8.4992-6.8608 15.36-15.36 15.36s-15.36-6.8608-15.36-15.36c0-42.1888 34.304-76.4928 76.4928-76.4928 42.1888 0 76.4928 34.304 76.4928 76.4928 0 8.4992-6.8608 15.36-15.36 15.36zM740.1984 396.0832c-8.4992 0-15.36-6.8608-15.36-15.36 0-25.2416-20.5312-45.7728-45.7728-45.7728s-45.7728 20.5312-45.7728 45.7728c0 8.4992-6.8608 15.36-15.36 15.36s-15.36-6.8608-15.36-15.36c0-42.1888 34.304-76.4928 76.4928-76.4928 42.1888 0 76.4928 34.304 76.4928 76.4928 0 8.4992-6.8608 15.36-15.36 15.36z" fill="#333333" p-id="2147"></path></svg>